<svg width="140" height="38" viewBox="0 0 140 38" fill="none" xmlns="http://www.w3.org/2000/svg">
<g clip-path="url(#clip0)">
<path d="M14.0699 37.158C11.0167 37.158 8.53638 35.6098 8.53638 32.664C8.53638 30.6503 9.87221 29.1243 11.5254 28.5305C9.93638 27.8946 8.95871 26.5168 8.95871 24.8846C8.95871 22.4895 10.9304 20.2845 14.2787 20.2845C17.3949 20.2845 19.3245 22.1675 19.3245 24.6723C19.3245 26.4316 18.3072 27.7885 16.7579 28.4243C18.6444 28.933 19.7912 30.5021 19.7912 32.3676C19.7912 35.1443 17.5022 37.158 14.0897 37.158H14.0699ZM14.1329 29.9083C12.9032 29.9083 11.6735 30.7133 11.6735 32.3676C11.6735 33.6813 12.713 34.6566 14.1539 34.6566C15.5107 34.6566 16.5712 33.6603 16.5712 32.3035C16.5712 30.7355 15.4255 29.9083 14.1539 29.9083H14.1329ZM14.1539 22.7858C12.734 22.7858 11.992 23.8242 11.992 25.0328C11.992 26.4526 13.0514 27.1946 14.1539 27.1946C15.2354 27.1946 16.2947 26.4748 16.2947 24.9477C16.2947 23.732 15.4897 22.7858 14.1749 22.7858H14.1539Z" fill="#2AB5FF"/>
<path d="M5.91617 20.5027H5.88933H0V22.99H2.71017V37.0752H5.88933L5.91617 20.5027Z" fill="#2AB5FF"/>
<path d="M124.769 31.6782C124.304 32.3933 123.75 33.0468 123.121 33.623C122.587 34.1118 121.271 34.4268 120.008 33.4772C118.807 32.8833 117.932 34.0605 116.809 33.5273C115.409 32.8624 116.395 31.9897 115.338 31.2734C114.12 30.4462 113.114 31.3982 112.257 30.3645C111.426 29.3612 112.723 28.4792 112.079 27.3043C111.222 25.7434 110.054 26.7724 109.595 25.6337C109.294 24.8859 109.154 23.3797 111.45 22.1524C110.882 21.7475 110.451 21.6694 109.412 21.8432C109.353 21.8432 108.844 21.9529 108.733 21.9762C107.847 22.1367 106.938 22.1224 106.057 21.9342C104.284 21.604 103.607 20.6754 103.521 20.547C104.814 20.4514 105.729 19.9719 106.273 19.7035C104.613 19.8855 102.615 19.7292 101.204 19.2672C100.259 18.9569 99.5702 18.4202 99.1747 17.8999C100.261 18.0488 101.367 17.9393 102.403 17.5802C101.095 17.5487 100.03 17.2115 99.0301 16.8942C96.9744 16.242 95.9804 15.1442 95.5044 14.3159C96.524 14.6507 97.8961 14.7755 98.4887 14.7755C99.5586 14.7755 100.068 14.6297 100.068 14.6297C98.981 14.3672 98.4245 14.1969 97.588 13.7792C95.5942 12.7817 94.9222 11.8157 94.2129 10.9792C93.937 10.6607 93.7037 10.3077 93.5187 9.92919C95.0727 10.6735 96.9406 11.391 98.9472 11.5835C95.8322 9.56519 92.8094 6.72435 92.6472 2.48352C94.0064 4.39219 97.2754 7.48035 105.17 10.7319C106.035 11.0889 106.609 11.3759 107.381 11.7515C110.75 13.3849 111.168 17.1299 111.714 20.0675C111.918 21.1595 112.031 22.0929 112.713 22.6762C112.63 22.3462 112.569 22.011 112.531 21.6729C112.414 20.5447 112.286 19.308 112.22 18.6862C114.022 17.7281 116.086 17.3824 118.101 17.7013C120.116 18.0202 121.973 18.9864 123.39 20.4539C124.807 21.9214 125.709 23.8103 125.957 25.8353C126.206 27.8603 125.789 29.9113 124.769 31.6782Z" fill="white"/>
<path d="M101.043 12.3068C101.043 12.3068 105.044 14.191 106.463 15.6365C107.882 17.082 108.913 18.2393 109.891 20.3557C109.891 20.3557 109.431 16.7938 107.161 14.9132C104.76 12.9298 102.927 12.6673 101.043 12.3068Z" fill="#2AB5FF"/>
<path d="M137.955 14.345C137.129 16.0168 136.066 17.2838 134.79 17.8951C134.79 17.8951 136.412 17.8858 137.686 16.809C137.023 17.9243 136.684 19.3021 133.253 20.0033C134.515 20.3183 135.619 20.0255 136.269 19.8435C135.667 20.5502 134.93 21.129 134.1 21.5456C133.252 21.947 132.38 22.1173 131.138 21.779C131.955 22.5583 132.866 22.6493 133.567 22.6236C133.462 22.8173 132.784 23.333 131.759 23.473C130.754 23.6083 129.22 23.655 128.259 23.1813C128.259 23.1813 128.458 23.6421 129.233 24.0388C129.156 24.0855 127.295 24.5486 126.49 23.9221L126.461 23.8171C126.204 23.011 125.848 22.2398 125.401 21.5211L125.362 21.464C125.767 20.4164 126.402 19.4731 127.22 18.7036C128.641 17.4203 131.666 16.5476 134.079 15.829C135.733 15.3355 137.123 14.7323 137.977 13.8748C138.084 13.7651 138.374 13.4081 138.578 13.155C138.367 13.5925 138.185 13.8806 137.955 14.345Z" fill="white"/>
<path d="M133.665 18.1355C132.678 18.2034 131.708 18.4234 130.788 18.7876C129.264 19.3931 127.588 20.7161 127.588 20.7161C127.588 20.7161 128.384 19.1913 129.984 18.5485C132.535 17.523 133.665 18.1355 133.665 18.1355Z" fill="#2AB5FF"/>
<path d="M139.99 9.98867C139.99 9.98867 139.806 10.3958 139.725 10.544C139.084 11.6932 137.879 13.2705 136.481 14.0545C135.403 14.6588 133.798 15.0672 132.281 15.4067C130.495 15.8068 128.081 16.7378 126.499 18.1343C125.72 18.8231 125.142 19.71 124.826 20.701C123.378 18.7969 121.312 17.4574 118.982 16.9131C116.653 16.3688 114.206 16.6538 112.064 17.719C111.58 14.8607 110.728 12.0128 107.564 10.6957C106.243 10.145 99.3803 7.49901 95.2538 4.06784C93.8538 2.90117 91.6523 0.369507 91.6523 0.369507C91.5788 0.845507 91.1856 4.14601 92.5331 6.64151C92.9741 7.45817 93.7114 8.41484 94.4604 9.19184C93.2868 8.53034 92.1516 7.86301 91.5706 7.33451C91.5706 8.18501 92.0478 10.0027 93.2273 11.6512C93.6183 12.1967 94.0691 12.6968 94.5713 13.1422C94.1979 13.0652 93.7476 12.9497 93.0978 12.7922C94.2563 15.9515 96.3831 16.7588 97.4074 17.3317C97.5568 17.789 98.1074 19.0058 99.8423 19.861C100.546 20.191 101.292 20.4237 102.059 20.5528C102.381 21.0125 103.459 22.4195 105.013 22.787C105.713 22.9701 106.44 23.0208 107.158 22.9363C106.529 24.425 106.26 26.0408 106.371 27.653C106.482 29.2653 106.972 30.8286 107.799 32.2167C108.627 33.6047 109.77 34.7784 111.135 35.6428C112.501 36.5072 114.051 37.0381 115.659 37.1924C117.268 37.3467 118.89 37.1201 120.395 36.5311C121.9 35.942 123.245 35.007 124.322 33.8016C125.398 32.5962 126.176 31.1544 126.592 29.5927C127.007 28.031 127.05 26.3934 126.715 24.8123C127.588 25.1822 128.979 25.0853 130.436 24.439C131.215 24.5953 132.736 24.3223 133.8 23.5955C134.798 22.9165 134.903 22.3297 134.995 22.1407C136.484 21.4255 137.606 18.9603 137.606 18.9603L137.023 19.2298C138.296 18.0095 139.029 15.2573 139.105 14.9528C138.813 15.2462 138.493 15.5096 138.149 15.7392C139.306 13.4163 139.724 11.8075 139.851 11.2277C139.942 10.8088 140.032 10.0972 139.99 9.98867ZM124.769 31.6782C124.304 32.3933 123.75 33.0468 123.121 33.623C122.588 34.1118 121.272 34.4268 120.008 33.4772C118.808 32.8833 117.933 34.0605 116.809 33.5273C115.409 32.8623 116.395 31.9897 115.338 31.2733C114.12 30.4462 113.114 31.3982 112.257 30.3645C111.426 29.3612 112.723 28.4792 112.079 27.3043C111.222 25.7433 110.054 26.7723 109.596 25.6337C109.295 24.8858 109.155 23.3797 111.451 22.1523C110.882 21.7475 110.451 21.6693 109.412 21.8432C109.353 21.8432 108.844 21.9528 108.733 21.9762C107.847 22.1366 106.938 22.1224 106.057 21.9342C104.284 21.604 103.607 20.6753 103.521 20.547C104.815 20.4513 105.729 19.9718 106.273 19.7035C104.613 19.8855 102.615 19.7292 101.204 19.2672C100.259 18.9568 99.5704 18.4202 99.1749 17.8998C100.261 18.0488 101.367 17.9393 102.403 17.5802C101.095 17.5487 100.03 17.2115 99.0303 16.8942C96.9746 16.242 95.9806 15.1442 95.5046 14.3158C96.5243 14.6507 97.8963 14.7755 98.4889 14.7755C99.5588 14.7755 100.069 14.6297 100.069 14.6297C98.9813 14.3672 98.4248 14.1968 97.5883 13.7792C95.5944 12.7817 94.9224 11.8157 94.2131 10.9792C93.9372 10.6607 93.7039 10.3077 93.5189 9.92917C95.0729 10.6735 96.9408 11.391 98.9474 11.5835C95.8324 9.56517 92.8096 6.72434 92.6474 2.48351C94.0066 4.39217 97.2756 7.48034 105.17 10.7318C106.035 11.0888 106.609 11.3758 107.381 11.7515C110.751 13.3848 111.168 17.1298 111.714 20.0675C111.918 21.1595 112.032 22.0928 112.713 22.6762C112.63 22.3462 112.569 22.011 112.531 21.6728C112.414 20.5447 112.286 19.308 112.221 18.6862C114.022 17.7281 116.086 17.3824 118.101 17.7013C120.116 18.0202 121.973 18.9864 123.39 20.4539C124.808 21.9213 125.709 23.8103 125.958 25.8353C126.206 27.8603 125.789 29.9112 124.769 31.6782ZM137.953 14.345C137.127 16.0168 136.064 17.2838 134.787 17.8952C134.787 17.8952 136.41 17.8858 137.684 16.809C137.02 17.9243 136.682 19.3022 133.251 20.0033C134.513 20.3183 135.617 20.0255 136.267 19.8435C135.665 20.5502 134.927 21.129 134.098 21.5457C133.25 21.947 132.378 22.1173 131.136 21.779C131.952 22.5583 132.864 22.6493 133.565 22.6237C133.46 22.8173 132.782 23.333 131.756 23.473C130.752 23.6083 129.218 23.655 128.256 23.1813C128.256 23.1813 128.456 23.6422 129.231 24.0388C129.154 24.0855 127.293 24.5487 126.488 23.9222L126.459 23.8172C126.202 23.011 125.846 22.2398 125.399 21.5212L125.36 21.464C125.765 20.4164 126.4 19.4731 127.218 18.7037C128.639 17.4203 131.664 16.5477 134.077 15.829C135.731 15.3355 137.121 14.7323 137.975 13.8748C138.082 13.7652 138.371 13.4082 138.576 13.155C138.367 13.5925 138.185 13.8807 137.955 14.345H137.953Z" fill="#495965"/>
<path d="M110.984 29.5991C110.816 29.4825 110.142 29.0788 109.775 28.3718C109.349 27.5551 109.397 27.134 109.282 26.8435C109.148 26.511 108.198 27.9611 108.801 29.0415C109.459 30.221 111.272 29.8056 110.984 29.5991Z" fill="#2AB5FF"/>
<path d="M115.513 33.7502C115.307 33.7117 114.52 33.6335 113.896 33.1505C113.17 32.5928 113.048 32.202 112.824 31.9897C112.566 31.747 112.264 33.4293 113.258 34.1468C114.343 34.9297 115.864 33.8167 115.513 33.7502Z" fill="#2AB5FF"/>
<path d="M120.47 34.6251C120.279 34.6415 120.065 34.785 119.495 34.778C119.003 34.7721 118.589 34.5096 118.474 34.4501C118.278 34.3475 118.506 35.3835 119.341 35.4243C120.038 35.464 120.69 34.6053 120.47 34.6251Z" fill="#2AB5FF"/>
<path d="M112.517 24.1193C112.027 23.1066 110.542 23.1859 110.76 23.3889C110.887 23.5056 111.407 23.9244 111.625 24.5498C111.88 25.2754 111.784 25.6091 111.845 25.8611C111.915 26.1469 112.881 24.8636 112.517 24.1193Z" fill="#2AB5FF"/>
<path d="M115.13 28.2178C114.269 27.2577 112.659 27.8025 112.965 27.9623C113.143 28.0557 113.848 28.3508 114.287 28.9703C114.798 29.689 114.799 30.0857 114.946 30.3435C115.114 30.6398 115.768 28.9295 115.13 28.2178Z" fill="#2AB5FF"/>
<path d="M118.349 30.7705C117.592 30.4111 116.296 31.3666 116.587 31.4355C116.843 31.495 117.179 31.4005 117.914 31.6513C118.545 31.8683 118.964 32.3828 119.088 32.5088C119.296 32.7246 119.372 31.2546 118.349 30.7705Z" fill="#2AB5FF"/>
<path d="M122.417 31.4588C121.555 31.3048 120.901 32.5473 121.095 32.4248C121.547 32.1495 121.804 31.9581 122.379 32.0935C123.022 32.2463 123.184 32.5065 123.296 32.5951C123.5 32.7526 123.225 31.6035 122.417 31.4588Z" fill="#2AB5FF"/>
<path d="M60.0226 34.442V23.0086C60.4606 22.9497 60.903 22.9306 61.3445 22.9515C63.9578 23.1136 65.2166 24.6233 65.2166 28.5001C65.2166 32.8168 63.8645 34.3801 61.2873 34.5248C60.8639 34.5481 60.4393 34.5203 60.0226 34.442ZM68.4949 28.3496C68.4949 23.8288 66.416 20.4093 60.7693 20.4093C58.8326 20.4093 56.8423 20.5131 56.8423 20.5131V36.983C56.8423 36.983 57.8701 37.1055 60.2163 37.0996C66.4661 37.0868 68.4949 33.8586 68.4949 28.3496Z" fill="#495965"/>
<path d="M40.5241 20.4968H37.3438V37.0308H40.5241V20.4968Z" fill="#495965"/>
<path d="M31.7415 28.3473C31.7415 28.3473 34.1273 27.5528 34.1273 24.6362C34.1273 21.9913 32.4287 20.3837 27.8927 20.421C25.732 20.4385 23.8093 20.5377 23.8093 20.5377V36.9445C23.8093 36.9445 25.2887 37.1615 27.9195 37.1615C31.7112 37.1615 34.6733 35.9062 34.6733 32.083C34.671 28.947 31.7415 28.3473 31.7415 28.3473ZM26.9862 23.0402C27.4922 22.9722 28.0037 22.9534 28.5133 22.9842C30.219 23.0845 30.9143 23.7052 30.9412 24.9955C30.968 26.336 30.2412 27.1807 28.2648 27.3043C27.8378 27.3408 27.4085 27.3408 26.9815 27.3043L26.9862 23.0402ZM28.406 34.5353C27.265 34.5458 26.9862 34.4455 26.9862 34.4455V29.717C26.9862 29.717 27.6488 29.6785 28.4013 29.6937C30.4418 29.738 31.4195 30.4952 31.4195 32.0772C31.4195 33.567 30.5107 34.5167 28.406 34.5353Z" fill="#495965"/>
<path d="M73.9516 20.4968H70.7712V37.0308H73.9516V20.4968Z" fill="#495965"/>
<path d="M46.9431 30.4637V37.0367H43.7698V20.54C43.7698 20.54 45.7228 20.4233 48.0281 20.4233C51.7708 20.4233 54.3503 21.7428 54.3503 25.0573C54.3503 29.1173 50.6169 29.9177 50.6169 29.9177L55.4434 37.0192H51.6669L47.4448 30.4637H46.9431ZM46.9431 22.997V28.0673C47.4739 28.098 48.0062 28.0961 48.5368 28.0615C50.1048 27.925 51.0953 27.155 51.0953 25.3957C51.0953 23.8218 50.2786 22.9713 48.3128 22.9352C47.8556 22.9253 47.3983 22.942 46.9431 22.9853V22.997Z" fill="#495965"/>
<path d="M77.1726 20.5388V20.4968H81.4764H85.4618V22.9748H80.3098V27.3008H84.9099H84.9531V29.7777H80.3098V34.5365H85.6309V37.0308H81.7518H77.1726V36.9877V20.5388Z" fill="#495965"/>
<path d="M96.1778 32.6196C96.1288 35.0696 94.3531 37.2128 90.9931 37.2128C89.9297 37.2218 88.8708 37.0748 87.8501 36.7765V33.9765C87.8501 33.9765 88.9269 34.5598 90.6991 34.5598C92.2263 34.5598 93.0068 33.8061 93.0068 32.7631C93.0068 31.6956 92.5518 31.2465 90.7901 29.8336C88.9234 28.3345 87.9376 27.1865 87.9621 24.9861C87.9889 22.5595 89.7389 20.3871 93.2821 20.3871C94.7848 20.3871 95.5093 20.6625 95.5093 20.6625L95.4999 23.2875C95.4999 23.2875 94.7906 22.948 93.4466 22.948C92.0664 22.948 91.0981 23.6421 91.0981 24.908C91.0981 26.4316 92.4083 27.197 93.7698 28.2726C95.3961 29.5641 96.2151 30.718 96.1778 32.6196Z" fill="#495965"/>
<path d="M99.6402 37.5173C99.4446 37.4411 99.2667 37.3256 99.1176 37.1778C98.9656 37.0286 98.8444 36.851 98.7606 36.6552C98.6717 36.4575 98.6268 36.243 98.6287 36.0263C98.6266 35.8081 98.6716 35.5921 98.7606 35.3928C98.8438 35.1972 98.9666 35.0209 99.1211 34.8748C99.2736 34.7322 99.4507 34.6184 99.6437 34.5388C99.8414 34.4611 100.052 34.4215 100.264 34.4222C100.48 34.4197 100.693 34.4594 100.893 34.5388C101.086 34.6169 101.262 34.7309 101.411 34.8748C101.559 35.0226 101.678 35.1967 101.761 35.3882C101.847 35.5884 101.89 35.804 101.888 36.0217C101.893 36.3118 101.817 36.5976 101.668 36.8465C101.462 37.1785 101.145 37.4272 100.773 37.549C100.402 37.6708 99.9996 37.6579 99.6367 37.5127L99.6402 37.5173ZM99.1304 36.71C99.2396 36.9138 99.4048 37.0822 99.6064 37.1953C99.8072 37.3092 100.034 37.3691 100.265 37.3691C100.496 37.3691 100.723 37.3092 100.924 37.1953C101.124 37.0789 101.288 36.9098 101.4 36.7065C101.513 36.4978 101.571 36.2637 101.569 36.0263C101.569 35.8475 101.535 35.6703 101.471 35.5037C101.406 35.345 101.313 35.1995 101.195 35.0743C101.077 34.951 100.933 34.854 100.774 34.7897C100.613 34.722 100.439 34.6874 100.264 34.6882C100.091 34.6877 99.9197 34.721 99.7592 34.7862C99.6 34.8516 99.4556 34.9484 99.3346 35.0708C99.2123 35.1926 99.1165 35.3384 99.0534 35.499C98.9879 35.667 98.9546 35.846 98.9554 36.0263C98.9535 36.2655 99.0138 36.5011 99.1304 36.71ZM99.9249 36.9527H99.6437V35.1047H100.358C100.528 35.0923 100.698 35.1353 100.842 35.2272C100.898 35.2764 100.943 35.3383 100.971 35.4079C100.999 35.4774 101.01 35.5526 101.004 35.6273C101.008 35.6929 100.999 35.7586 100.977 35.8205C100.955 35.8824 100.921 35.9393 100.877 35.9878C100.779 36.0713 100.66 36.1248 100.533 36.1418L101.055 36.9527H100.736L100.247 36.15H99.9249V36.9527ZM100.264 35.9155C100.378 35.9198 100.491 35.8995 100.596 35.856C100.638 35.8313 100.671 35.7947 100.692 35.7508C100.713 35.7069 100.72 35.6578 100.712 35.6098C100.712 35.429 100.577 35.338 100.304 35.338H99.9249V35.9213L100.264 35.9155Z" fill="white"/>
</g>
<defs>
<clipPath id="clip0">
<rect width="140" height="37.2727" fill="white" transform="translate(0 0.363647)"/>
</clipPath>
</defs>
</svg>
