<svg width="160" height="43" viewBox="0 0 160 43" fill="none" xmlns="http://www.w3.org/2000/svg">
<g clip-path="url(#clip0)">
<path d="M16.0801 42.0506C12.5908 42.0506 9.7561 40.2813 9.7561 36.9146C9.7561 34.6133 11.2828 32.8693 13.1721 32.1906C11.3561 31.4639 10.2388 29.8893 10.2388 28.0239C10.2388 25.2866 12.4921 22.7666 16.3188 22.7666C19.8801 22.7666 22.0854 24.9186 22.0854 27.7813C22.0854 29.7919 20.9228 31.3426 19.1521 32.0693C21.3081 32.6506 22.6188 34.4439 22.6188 36.5759C22.6188 39.7493 20.0028 42.0506 16.1028 42.0506H16.0801ZM16.1521 33.7653C14.7468 33.7653 13.3414 34.6853 13.3414 36.5759C13.3414 38.0773 14.5294 39.1919 16.1761 39.1919C17.7268 39.1919 18.9388 38.0533 18.9388 36.5026C18.9388 34.7106 17.6294 33.7653 16.1761 33.7653H16.1521ZM16.1761 25.6253C14.5534 25.6253 13.7054 26.8119 13.7054 28.1933C13.7054 29.8159 14.9161 30.6639 16.1761 30.6639C17.4121 30.6639 18.6228 29.8413 18.6228 28.0959C18.6228 26.7066 17.7028 25.6253 16.2001 25.6253H16.1761Z" fill="white"/>
<path d="M6.76133 23.0161H6.73067H0V25.8588H3.09733V41.9561H6.73067L6.76133 23.0161Z" fill="white"/>
<path d="M142.593 35.7882C142.061 36.6055 141.428 37.3523 140.709 38.0108C140.1 38.5695 138.596 38.9295 137.152 37.8442C135.78 37.1655 134.78 38.5108 133.496 37.9015C131.896 37.1415 133.023 36.1442 131.815 35.3255C130.423 34.3802 129.273 35.4682 128.293 34.2868C127.344 33.1402 128.827 32.1322 128.091 30.7895C127.111 29.0055 125.776 30.1815 125.252 28.8802C124.908 28.0255 124.748 26.3042 127.372 24.9015C126.723 24.4389 126.229 24.3495 125.043 24.5482C124.975 24.5482 124.393 24.6735 124.267 24.7002C123.254 24.8836 122.215 24.8673 121.208 24.6522C119.181 24.2749 118.408 23.2135 118.309 23.0669C119.788 22.9575 120.833 22.4095 121.455 22.1029C119.557 22.3109 117.275 22.1322 115.661 21.6042C114.581 21.2495 113.795 20.6362 113.343 20.0415C114.584 20.2118 115.848 20.0866 117.032 19.6762C115.537 19.6402 114.32 19.2549 113.177 18.8922C110.828 18.1469 109.692 16.8922 109.148 15.9455C110.313 16.3282 111.881 16.4709 112.559 16.4709C113.781 16.4709 114.364 16.3042 114.364 16.3042C113.121 16.0042 112.485 15.8095 111.529 15.3322C109.251 14.1922 108.483 13.0882 107.672 12.1322C107.357 11.7682 107.09 11.3648 106.879 10.9322C108.655 11.7829 110.789 12.6029 113.083 12.8229C109.523 10.5162 106.068 7.26952 105.883 2.42285C107.436 4.60418 111.172 8.13352 120.195 11.8495C121.183 12.2575 121.839 12.5855 122.721 13.0149C126.572 14.8815 127.049 19.1615 127.673 22.5189C127.907 23.7668 128.036 24.8335 128.815 25.5002C128.719 25.1231 128.65 24.74 128.607 24.3535C128.473 23.0642 128.327 21.6509 128.252 20.9402C130.31 19.8452 132.67 19.4501 134.973 19.8146C137.276 20.1791 139.397 21.2833 141.017 22.9604C142.637 24.6375 143.667 26.7963 143.951 29.1106C144.236 31.4249 143.759 33.7688 142.593 35.7882Z" fill="white"/>
<path d="M115.477 13.6494C115.477 13.6494 120.051 15.8027 121.672 17.4547C123.293 19.1067 124.472 20.4294 125.589 22.8481C125.589 22.8481 125.064 18.7774 122.469 16.6281C119.725 14.3614 117.631 14.0614 115.477 13.6494Z" fill="#2AB5FF"/>
<path d="M157.663 15.9787C156.719 17.8893 155.504 19.3373 154.045 20.036C154.045 20.036 155.9 20.0253 157.356 18.7947C156.597 20.0693 156.211 21.644 152.289 22.4453C153.732 22.8053 154.993 22.4707 155.736 22.2627C155.048 23.0703 154.205 23.7318 153.257 24.208C152.288 24.6667 151.292 24.8613 149.872 24.4747C150.805 25.3653 151.847 25.4693 152.648 25.44C152.528 25.6613 151.753 26.2507 150.581 26.4107C149.433 26.5653 147.68 26.6187 146.581 26.0773C146.581 26.0773 146.809 26.604 147.695 27.0573C147.607 27.1107 145.48 27.64 144.56 26.924L144.527 26.804C144.233 25.8827 143.826 25.0013 143.316 24.18L143.271 24.1147C143.734 22.9174 144.46 21.8394 145.395 20.96C147.019 19.4933 150.476 18.496 153.233 17.6747C155.124 17.1107 156.712 16.4213 157.688 15.4413C157.811 15.316 158.141 14.908 158.375 14.6187C158.133 15.1187 157.925 15.448 157.663 15.9787Z" fill="white"/>
<path d="M152.76 20.3104C151.632 20.3881 150.523 20.6395 149.472 21.0558C147.731 21.7478 145.815 23.2598 145.815 23.2598C145.815 23.2598 146.724 21.5171 148.553 20.7824C151.468 19.6104 152.76 20.3104 152.76 20.3104Z" fill="#2AB5FF"/>
<path d="M159.988 11.0002C159.988 11.0002 159.779 11.4655 159.685 11.6348C158.953 12.9482 157.576 14.7508 155.979 15.6468C154.747 16.3375 152.912 16.8042 151.179 17.1922C149.137 17.6495 146.379 18.7135 144.571 20.3095C143.68 21.0966 143.019 22.1103 142.659 23.2428C141.004 21.0667 138.642 19.5359 135.979 18.9138C133.317 18.2917 130.521 18.6174 128.073 19.8348C127.52 16.5682 126.547 13.3135 122.931 11.8082C121.42 11.1788 113.577 8.15484 108.861 4.2335C107.261 2.90017 104.745 0.00683594 104.745 0.00683594C104.661 0.550836 104.212 4.32284 105.752 7.17484C106.256 8.10817 107.099 9.2015 107.955 10.0895C106.613 9.3335 105.316 8.57084 104.652 7.96684C104.652 8.93884 105.197 11.0162 106.545 12.9002C106.992 13.5236 107.507 14.0952 108.081 14.6042C107.655 14.5162 107.14 14.3842 106.397 14.2042C107.721 17.8148 110.152 18.7375 111.323 19.3922C111.493 19.9148 112.123 21.3055 114.105 22.2828C114.91 22.6599 115.762 22.9259 116.639 23.0735C117.007 23.5988 118.239 25.2068 120.015 25.6268C120.814 25.8361 121.646 25.894 122.467 25.7975C121.748 27.4988 121.44 29.3454 121.567 31.188C121.694 33.0305 122.253 34.8173 123.199 36.4036C124.145 37.9899 125.451 39.3313 127.012 40.3192C128.572 41.3071 130.343 41.9137 132.182 42.0901C134.02 42.2665 135.875 42.0076 137.595 41.3343C139.314 40.6611 140.852 39.5925 142.082 38.2149C143.312 36.8373 144.201 35.1895 144.676 33.4048C145.151 31.62 145.2 29.7484 144.817 27.9415C145.815 28.3642 147.404 28.2535 149.069 27.5148C149.96 27.6935 151.699 27.3815 152.915 26.5508C154.055 25.7748 154.175 25.1042 154.28 24.8882C155.981 24.0708 157.264 21.2535 157.264 21.2535L156.597 21.5615C158.052 20.1668 158.891 17.0215 158.977 16.6735C158.644 17.0088 158.278 17.3098 157.884 17.5722C159.207 14.9175 159.684 13.0788 159.829 12.4162C159.933 11.9375 160.036 11.1242 159.988 11.0002ZM142.593 35.7882C142.062 36.6055 141.428 37.3523 140.709 38.0108C140.1 38.5695 138.596 38.9295 137.152 37.8442C135.78 37.1655 134.78 38.5108 133.496 37.9015C131.896 37.1415 133.023 36.1442 131.815 35.3255C130.423 34.3802 129.273 35.4682 128.293 34.2868C127.344 33.1402 128.827 32.1322 128.091 30.7895C127.111 29.0055 125.776 30.1815 125.252 28.8802C124.908 28.0255 124.748 26.3042 127.372 24.9015C126.723 24.4388 126.229 24.3495 125.043 24.5482C124.975 24.5482 124.393 24.6735 124.267 24.7002C123.254 24.8836 122.215 24.8673 121.208 24.6522C119.181 24.2748 118.408 23.2135 118.309 23.0668C119.788 22.9575 120.833 22.4095 121.455 22.1028C119.557 22.3108 117.275 22.1322 115.661 21.6042C114.581 21.2495 113.795 20.6362 113.343 20.0415C114.584 20.2117 115.848 20.0866 117.032 19.6762C115.537 19.6402 114.32 19.2548 113.177 18.8922C110.828 18.1468 109.692 16.8922 109.148 15.9455C110.313 16.3282 111.881 16.4708 112.559 16.4708C113.781 16.4708 114.364 16.3042 114.364 16.3042C113.121 16.0042 112.485 15.8095 111.529 15.3322C109.251 14.1922 108.483 13.0882 107.672 12.1322C107.357 11.7682 107.09 11.3648 106.879 10.9322C108.655 11.7828 110.789 12.6028 113.083 12.8228C109.523 10.5162 106.068 7.2695 105.883 2.42284C107.436 4.60417 111.172 8.1335 120.195 11.8495C121.183 12.2575 121.839 12.5855 122.721 13.0148C126.572 14.8815 127.049 19.1615 127.673 22.5188C127.907 23.7668 128.036 24.8335 128.815 25.5002C128.72 25.1231 128.65 24.74 128.607 24.3535C128.473 23.0642 128.327 21.6508 128.252 20.9402C130.311 19.8452 132.67 19.4501 134.973 19.8146C137.276 20.179 139.397 21.2833 141.017 22.9604C142.637 24.6375 143.667 26.7963 143.952 29.1106C144.236 31.4249 143.759 33.7688 142.593 35.7882ZM157.66 15.9788C156.716 17.8895 155.501 19.3375 154.043 20.0362C154.043 20.0362 155.897 20.0255 157.353 18.7948C156.595 20.0695 156.208 21.6442 152.287 22.4455C153.729 22.8055 154.991 22.4708 155.733 22.2628C155.046 23.0705 154.203 23.732 153.255 24.2082C152.285 24.6668 151.289 24.8615 149.869 24.4748C150.803 25.3655 151.844 25.4695 152.645 25.4402C152.525 25.6615 151.751 26.2508 150.579 26.4108C149.431 26.5655 147.677 26.6188 146.579 26.0775C146.579 26.0775 146.807 26.6042 147.692 27.0575C147.604 27.1108 145.477 27.6402 144.557 26.9242L144.524 26.8042C144.23 25.8829 143.824 25.0015 143.313 24.1802L143.268 24.1148C143.731 22.9176 144.457 21.8396 145.392 20.9602C147.016 19.4935 150.473 18.4962 153.231 17.6748C155.121 17.1108 156.709 16.4215 157.685 15.4415C157.808 15.3162 158.139 14.9082 158.372 14.6188C158.133 15.1188 157.925 15.4482 157.663 15.9788H157.66Z" fill="#495965"/>
<path d="M126.839 33.4122C126.647 33.2789 125.876 32.8175 125.457 32.0095C124.971 31.0762 125.025 30.5949 124.893 30.2629C124.74 29.8829 123.655 31.5402 124.344 32.7749C125.096 34.1229 127.168 33.6482 126.839 33.4122Z" fill="#2AB5FF"/>
<path d="M132.015 38.1558C131.78 38.1118 130.88 38.0225 130.167 37.4705C129.337 36.8331 129.197 36.3865 128.941 36.1438C128.647 35.8665 128.301 37.7891 129.437 38.6091C130.677 39.5038 132.416 38.2318 132.015 38.1558Z" fill="#2AB5FF"/>
<path d="M137.68 39.1559C137.461 39.1746 137.217 39.3386 136.565 39.3306C136.004 39.3239 135.531 39.0239 135.399 38.9559C135.175 38.8386 135.436 40.0226 136.389 40.0693C137.187 40.1146 137.932 39.1333 137.68 39.1559Z" fill="#2AB5FF"/>
<path d="M128.591 27.1493C128.031 25.992 126.333 26.0826 126.583 26.3146C126.728 26.448 127.323 26.9266 127.572 27.6413C127.863 28.4706 127.753 28.852 127.823 29.14C127.903 29.4666 129.007 28 128.591 27.1493Z" fill="#2AB5FF"/>
<path d="M131.577 31.8332C130.593 30.7359 128.753 31.3585 129.103 31.5412C129.307 31.6479 130.112 31.9852 130.613 32.6932C131.197 33.5145 131.199 33.9679 131.367 34.2625C131.559 34.6012 132.307 32.6465 131.577 31.8332Z" fill="#2AB5FF"/>
<path d="M135.256 34.7507C134.391 34.3401 132.909 35.4321 133.243 35.5107C133.535 35.5787 133.919 35.4707 134.759 35.7574C135.48 36.0054 135.959 36.5934 136.1 36.7374C136.339 36.9841 136.425 35.3041 135.256 34.7507Z" fill="#2AB5FF"/>
<path d="M139.905 35.5371C138.92 35.3611 138.172 36.7811 138.395 36.6411C138.911 36.3264 139.204 36.1078 139.861 36.2624C140.596 36.4371 140.781 36.7344 140.909 36.8358C141.143 37.0158 140.828 35.7024 139.905 35.5371Z" fill="#2AB5FF"/>
<path d="M68.5973 38.9465V25.8798C69.0979 25.8125 69.6035 25.7906 70.108 25.8145C73.0946 25.9998 74.5333 27.7252 74.5333 32.1558C74.5333 37.0892 72.988 38.8758 70.0426 39.0412C69.5588 39.0678 69.0735 39.036 68.5973 38.9465ZM78.28 31.9838C78.28 26.8172 75.904 22.9092 69.4506 22.9092C67.2373 22.9092 64.9626 23.0278 64.9626 23.0278V41.8505C64.9626 41.8505 66.1373 41.9905 68.8186 41.9838C75.9613 41.9692 78.28 38.2798 78.28 31.9838Z" fill="white"/>
<path d="M46.3134 23.0093H42.6787V41.9053H46.3134V23.0093Z" fill="white"/>
<path d="M36.276 31.9813C36.276 31.9813 39.0027 31.0733 39.0027 27.7399C39.0027 24.7173 37.0614 22.8799 31.8774 22.9226C29.408 22.9426 27.2107 23.0559 27.2107 23.0559V41.8066C27.2107 41.8066 28.9014 42.0546 31.908 42.0546C36.2414 42.0546 39.6267 40.6199 39.6267 36.2506C39.624 32.6666 36.276 31.9813 36.276 31.9813ZM30.8414 25.9159C31.4197 25.8383 32.0042 25.8168 32.5867 25.8519C34.536 25.9666 35.3307 26.6759 35.3614 28.1506C35.392 29.6826 34.5614 30.6479 32.3027 30.7893C31.8147 30.8309 31.324 30.8309 30.836 30.7893L30.8414 25.9159ZM32.464 39.0533C31.16 39.0653 30.8414 38.9506 30.8414 38.9506V33.5466C30.8414 33.5466 31.5987 33.5026 32.4587 33.5199C34.7907 33.5706 35.908 34.4359 35.908 36.2439C35.908 37.9466 34.8694 39.0319 32.464 39.0533Z" fill="white"/>
<path d="M84.516 23.0093H80.8813V41.9053H84.516V23.0093Z" fill="white"/>
<path d="M53.6494 34.4V41.912H50.0227V23.0586C50.0227 23.0586 52.2547 22.9253 54.8894 22.9253C59.1667 22.9253 62.1147 24.4333 62.1147 28.2213C62.1147 32.8613 57.848 33.776 57.848 33.776L63.364 41.892H59.048L54.2227 34.4H53.6494ZM53.6494 25.8666V31.6613C54.256 31.6963 54.8643 31.6941 55.4707 31.6546C57.2627 31.4986 58.3947 30.6186 58.3947 28.608C58.3947 26.8093 57.4614 25.8373 55.2147 25.796C54.6923 25.7847 54.1696 25.8038 53.6494 25.8533V25.8666Z" fill="white"/>
<path d="M88.1973 23.0573V23.0093H93.1159H97.6706V25.8413H91.7826V30.7853H97.0399H97.0893V33.6159H91.7826V39.0546H97.8639V41.9053H93.4306H88.1973V41.8559V23.0573Z" fill="white"/>
<path d="M109.917 36.8638C109.861 39.6638 107.832 42.1131 103.992 42.1131C102.777 42.1234 101.566 41.9554 100.4 41.6145V38.4145C100.4 38.4145 101.631 39.0811 103.656 39.0811C105.401 39.0811 106.293 38.2198 106.293 37.0278C106.293 35.8078 105.773 35.2945 103.76 33.6798C101.627 31.9665 100.5 30.6545 100.528 28.1398C100.559 25.3665 102.559 22.8838 106.608 22.8838C108.325 22.8838 109.153 23.1985 109.153 23.1985L109.143 26.1985C109.143 26.1985 108.332 25.8105 106.796 25.8105C105.219 25.8105 104.112 26.6038 104.112 28.0505C104.112 29.7918 105.609 30.6665 107.165 31.8958C109.024 33.3718 109.96 34.6905 109.917 36.8638Z" fill="white"/>
<path d="M113.875 42.4613C113.651 42.3742 113.448 42.2421 113.277 42.0733C113.104 41.9027 112.965 41.6998 112.869 41.476C112.768 41.2501 112.716 41.0049 112.719 40.7573C112.716 40.5079 112.768 40.261 112.869 40.0333C112.964 39.8097 113.105 39.6082 113.281 39.4413C113.456 39.2783 113.658 39.1482 113.879 39.0573C114.104 38.9684 114.345 38.9232 114.588 38.9239C114.834 38.9212 115.078 38.9665 115.307 39.0573C115.527 39.1465 115.727 39.2768 115.899 39.4413C116.067 39.6102 116.203 39.8092 116.299 40.0279C116.396 40.2568 116.446 40.5032 116.444 40.752C116.45 41.0835 116.362 41.4101 116.192 41.6946C115.956 42.074 115.594 42.3582 115.17 42.4974C114.745 42.6366 114.285 42.622 113.871 42.456L113.875 42.4613ZM113.292 41.5386C113.417 41.7715 113.605 41.9639 113.836 42.0933C114.065 42.2235 114.325 42.2919 114.589 42.2919C114.852 42.2919 115.112 42.2235 115.341 42.0933C115.57 41.9602 115.758 41.767 115.885 41.5346C116.015 41.2961 116.081 41.0286 116.079 40.7573C116.078 40.553 116.041 40.3504 115.967 40.16C115.893 39.9786 115.786 39.8123 115.652 39.6693C115.516 39.5283 115.352 39.4175 115.171 39.3439C114.986 39.2666 114.788 39.2271 114.588 39.2279C114.39 39.2274 114.194 39.2655 114.011 39.3399C113.829 39.4147 113.664 39.5254 113.525 39.6653C113.385 39.8044 113.276 39.971 113.204 40.1546C113.129 40.3467 113.091 40.5511 113.092 40.7573C113.09 41.0307 113.159 41.2999 113.292 41.5386ZM114.2 41.8159H113.879V39.7039H114.695C114.889 39.6898 115.083 39.7389 115.248 39.8439C115.313 39.9002 115.363 39.971 115.395 40.0505C115.427 40.1299 115.44 40.2159 115.433 40.3013C115.438 40.3762 115.427 40.4513 115.402 40.522C115.377 40.5928 115.339 40.6579 115.288 40.7133C115.177 40.8087 115.04 40.8698 114.895 40.8893L115.492 41.8159H115.127L114.568 40.8986H114.2V41.8159ZM114.588 40.6306C114.718 40.6356 114.847 40.6124 114.967 40.5626C115.014 40.5344 115.053 40.4926 115.076 40.4424C115.1 40.3923 115.108 40.3361 115.1 40.2813C115.1 40.0746 114.945 39.9706 114.633 39.9706H114.2V40.6373L114.588 40.6306Z" fill="white"/>
</g>
<defs>
<clipPath id="clip0">
<rect width="160" height="42.5973" fill="white"/>
</clipPath>
</defs>
</svg>
